<?xml version="1.0" encoding="utf-8"?>
<!-- Generator: Adobe Illustrator 23.0.1, SVG Export Plug-In . SVG Version: 6.00 Build 0)  -->
<svg version="1.2" baseProfile="tiny" id="Wize" xmlns="http://www.w3.org/2000/svg" xmlns:xlink="http://www.w3.org/1999/xlink"
	 x="0px" y="0px" viewBox="0 0 612 142.91" xml:space="preserve">
<g>
	<path fill="#00AEEF" d="M69.42,68.64l-3.97,0.53c-0.24-2.06-0.77-3.83-1.6-5.34c-0.83-1.5-1.88-2.75-3.14-3.73
		c-1.26-0.99-2.73-1.72-4.39-2.19c-1.66-0.48-3.46-0.71-5.39-0.71c-2.93,0-5.29,0.5-7.09,1.48c-1.8,0.99-2.7,2.59-2.7,4.8
		c0,1.34,0.43,2.4,1.3,3.17c0.87,0.77,2.02,1.4,3.44,1.9c1.42,0.49,3.05,0.9,4.89,1.22c1.84,0.32,3.71,0.66,5.6,1.04
		s3.77,0.85,5.6,1.42c1.84,0.57,3.47,1.36,4.89,2.37c1.42,1.01,2.57,2.29,3.44,3.85s1.3,3.53,1.3,5.9c0,2.37-0.41,4.43-1.22,6.16
		c-0.81,1.74-1.97,3.18-3.47,4.33c-1.5,1.15-3.3,2-5.39,2.55c-2.09,0.55-4.43,0.83-6.99,0.83c-2.61,0-4.87-0.29-6.79-0.86
		c-1.92-0.57-3.63-1.35-5.13-2.34c-0.71-0.48-1.38-0.71-2.02-0.71c-0.28,0-0.71,0.29-1.3,0.86c-0.59,0.57-1.05,1.27-1.36,2.1h-3.97
		V81.03l3.91-0.36c0.16,1.9,0.65,3.62,1.48,5.16c0.83,1.54,1.93,2.86,3.29,3.94c1.36,1.09,2.99,1.94,4.89,2.55
		c1.9,0.61,3.99,0.92,6.28,0.92c3.36,0,5.93-0.66,7.71-1.98c1.78-1.32,2.67-3.4,2.67-6.25c0-0.91-0.28-1.68-0.83-2.31
		c-0.56-0.63-1.3-1.15-2.25-1.57c-0.95-0.41-2.04-0.76-3.26-1.04c-1.23-0.28-2.53-0.52-3.91-0.74c-1.38-0.22-2.78-0.44-4.18-0.68
		c-1.4-0.24-2.76-0.53-4.06-0.89c-1.78-0.47-3.38-1.05-4.8-1.74s-2.62-1.55-3.59-2.58c-0.97-1.03-1.72-2.27-2.25-3.73
		c-0.53-1.46-0.8-3.2-0.8-5.21c0-1.54,0.26-3.04,0.77-4.5c0.51-1.46,1.37-2.76,2.58-3.91c1.21-1.14,2.78-2.06,4.71-2.75
		c1.94-0.69,4.33-1.04,7.17-1.04c2.65,0,4.88,0.25,6.7,0.74c1.82,0.49,3.42,1.14,4.8,1.93c0.83,0.48,1.56,0.71,2.19,0.71
		c0.43,0,0.96-0.26,1.57-0.77s1.1-1.09,1.45-1.72h3.2V68.64z"/>
	<path fill="#00AEEF" d="M119.75,71.37l-3.74,0.18c-0.16-2.65-0.45-4.85-0.86-6.61c-0.42-1.76-0.97-3.16-1.67-4.21
		c-0.7-1.05-1.54-1.78-2.53-2.19c-0.99-0.41-2.16-0.62-3.51-0.62h-5.36v33.25c0,1.82,1.78,2.73,5.34,2.73v3.38H87.74v-3.38
		c3.52,0,5.28-0.91,5.28-2.73V57.91h-5.39c-1.34,0-2.51,0.21-3.5,0.62c-0.99,0.42-1.83,1.15-2.52,2.19
		c-0.69,1.05-1.25,2.45-1.66,4.21c-0.42,1.76-0.7,3.96-0.86,6.61l-3.74-0.18V53.29h44.4V71.37z"/>
	<path fill="#00AEEF" d="M163.44,66.57l-4.15,0.24c-0.48-5.97-3-8.95-7.59-8.95h-13.28V72.2h6.76c2.37,0,3.73-2.39,4.09-7.17h3.74
		l-0.89,18.5h-3.62c-0.4-4.9-1.64-7.35-3.74-7.35h-6.34v16.48h11.15c6.64,0,10.31-4.23,11.03-12.69l4.27,0.41l-1.42,16.9h-39.36
		v-3.38c3.52,0,5.28-0.91,5.28-2.73V59.46c0-1.82-1.76-2.73-5.28-2.73v-3.5h39.36V66.57z"/>
	<path fill="#00AEEF" d="M215.91,90.75c0,1.98-0.57,3.63-1.72,4.95c-1.15,1.33-3.1,1.99-5.87,1.99c-3.08,0-5.28-0.72-6.58-2.16
		c-1.3-1.44-1.96-3.23-1.96-5.37v-4.44c0-3.32-0.48-5.74-1.42-7.26c-0.95-1.52-2.69-2.28-5.22-2.28h-9.01v14.94
		c0,1.82,2.19,2.73,6.58,2.73v3.44h-20.93v-3.44c3.52,0,5.28-0.91,5.28-2.73V59.45c0-1.82-1.76-2.73-5.28-2.73v-3.5h25.37
		c1.93,0,3.83,0.13,5.69,0.39c1.86,0.26,3.51,0.78,4.95,1.57c1.44,0.79,2.6,1.91,3.47,3.35c0.87,1.44,1.3,3.35,1.3,5.72
		c0,1.54-0.24,2.9-0.71,4.06c-0.48,1.17-1.1,2.16-1.87,3c-0.77,0.83-1.65,1.5-2.64,2.02c-0.99,0.51-2.02,0.89-3.09,1.13
		c1.02,0.35,1.94,0.82,2.77,1.39c0.82,0.57,1.52,1.3,2.09,2.19c0.57,0.89,1,1.97,1.3,3.23c0.3,1.26,0.44,2.77,0.44,4.5v5.46
		c0,0.87,0.18,1.51,0.54,1.93c0.36,0.41,0.82,0.62,1.38,0.62c0.6,0,1.08-0.21,1.44-0.62c0.36-0.42,0.54-1.06,0.54-1.93v-2.85h3.14
		V90.75z M184.13,58.21V72.2h9.72c2.37,0,4.19-0.54,5.45-1.63c1.26-1.09,1.9-2.93,1.9-5.54c0-4.54-2.45-6.82-7.35-6.82H184.13z"/>
	<path fill="#00AEEF" d="M239.92,56.72c-3.52,0-5.28,0.91-5.28,2.73v31.71c0,1.82,1.76,2.73,5.28,2.73v3.38h-19.68v-3.38
		c3.56,0,5.34-0.91,5.34-2.73V59.46c0-1.82-1.78-2.73-5.34-2.73v-3.5h19.68V56.72z"/>
	<path fill="#00AEEF" d="M265.88,56.72c-4.39,0-6.58,0.91-6.58,2.73v33.2h11.62c1.5,0,2.85-0.21,4.03-0.62
		c1.19-0.42,2.21-1.11,3.08-2.07c0.87-0.97,1.57-2.26,2.1-3.88c0.53-1.62,0.9-3.66,1.1-6.11l3.91,0.41l-1.42,16.9h-38.77v-3.38
		c3.52,0,5.28-0.91,5.28-2.73V59.46c0-1.82-1.76-2.73-5.28-2.73v-3.5h20.93V56.72z"/>
</g>
<path fill="#A6A8AB" d="M283.31,35.11H34.92c-0.69,0-1.25-0.56-1.25-1.25l0,0c0-0.69,0.56-1.25,1.25-1.25h248.4
	c0.69,0,1.25,0.56,1.25,1.25l0,0C284.56,34.56,284,35.11,283.31,35.11z"/>
<path fill="#A6A8AB" d="M283.31,117.53H33.67v-2.49h249.64c0.69,0,1.25,0.56,1.25,1.25l0,0C284.56,116.97,284,117.53,283.31,117.53z
	"/>
<g>
	<path fill="#636466" d="M524.82,33.87v72.74c0,5.34-4.33,9.67-9.67,9.67h-96.33l60.31-82.42H524.82z"/>
	<path fill="#000001" d="M479.13,33.87l-60.31,82.42h-105V43.54c0-5.34,4.33-9.67,9.67-9.67h4.76h4.88h128.21h6.33H479.13z"/>
	<circle fill="#FFFFFF" cx="524.69" cy="85.92" r="10.7"/>
	<path fill="#EC1C24" d="M531.38,84.32v3.44c0,0.27-0.22,0.5-0.5,0.5h-12.39c-0.27,0-0.5-0.22-0.5-0.5v-3.44
		c0-0.27,0.22-0.5,0.5-0.5h12.39C531.16,83.82,531.38,84.04,531.38,84.32z"/>
	<path fill="#EC1C24" d="M522.96,79.35h3.44c0.27,0,0.5,0.22,0.5,0.5v12.39c0,0.27-0.22,0.5-0.5,0.5h-3.44c-0.27,0-0.5-0.22-0.5-0.5
		V79.84C522.47,79.57,522.69,79.35,522.96,79.35z"/>
	<g>
		<path fill="#636466" d="M563.57,79.78v11.57c0,0.93,0.32,1.39,0.95,1.39c0.65,0,1.67-0.48,3.05-1.45v3.28
			c-1.22,0.79-2.2,1.33-2.94,1.61c-0.74,0.29-1.51,0.43-2.32,0.43c-2.31,0-3.67-0.91-4.08-2.72c-2.29,1.78-4.72,2.66-7.31,2.66
			c-1.89,0-3.47-0.63-4.73-1.88c-1.26-1.25-1.89-2.83-1.89-4.72c0-1.72,0.62-3.25,1.85-4.6c1.23-1.35,2.98-2.42,5.25-3.21l6.89-2.37
			v-1.45c0-3.27-1.64-4.91-4.91-4.91c-2.94,0-5.8,1.52-8.58,4.56v-5.89c2.09-2.46,5.1-3.7,9.02-3.7c2.94,0,5.3,0.77,7.07,2.31
			c0.59,0.49,1.12,1.15,1.6,1.97c0.47,0.82,0.77,1.64,0.9,2.46C563.5,75.94,563.57,77.49,563.57,79.78z M558.27,90.76v-8.08
			l-3.61,1.39c-1.83,0.73-3.13,1.46-3.89,2.2c-0.76,0.74-1.14,1.66-1.14,2.77c0,1.12,0.36,2.04,1.08,2.75
			c0.72,0.71,1.65,1.07,2.8,1.07C555.22,92.86,556.81,92.16,558.27,90.76z"/>
		<path fill="#636466" d="M575.1,57.95c0.89,0,1.65,0.31,2.28,0.92c0.63,0.61,0.95,1.36,0.95,2.25c0,0.87-0.32,1.62-0.95,2.25
			c-0.63,0.63-1.39,0.95-2.28,0.95c-0.83,0-1.56-0.32-2.19-0.96c-0.63-0.64-0.95-1.39-0.95-2.23c0-0.83,0.32-1.56,0.95-2.2
			C573.55,58.27,574.28,57.95,575.1,57.95z M572.44,69.4h5.38v27.22h-5.38V69.4z"/>
	</g>
	<path fill="#FFFFFF" d="M402.97,53.4h6.18l-17.49,43.46h-1.36l-14.15-35.19l-14.29,35.19h-1.33L343.08,53.4h6.24l11.93,29.83
		l12.01-29.83h5.86l12.06,29.83L402.97,53.4z"/>
	<path fill="#FFFFFF" d="M414.01,53.4h6.2v43.27h-6.2V53.4z"/>
	<path fill="#FFFFFF" d="M427.58,53.34h37.3l-27.64,37.82h27.64v5.51h-39.06l27.68-37.82h-25.92V53.34z"/>
	<path fill="#FFFFFF" d="M470.79,53.4h24.53v5.51h-18.34v13.2h17.72v5.55h-17.72V91.1h18.93v5.51h-25.12V53.4z"/>
</g>
</svg>
